<svg width="256" height="256" viewBox="0 0 256 256" fill="none" xmlns="http://www.w3.org/2000/svg">
<path fill-rule="evenodd" clip-rule="evenodd" d="M256 20C256 8.95431 247.046 0 236 0H20C8.95431 0 0 8.95431 0 20V54.0819C0 58.2317 1.84864 62.159 4.99173 64.8686C13.9302 72.5742 22.1 80.5567 27.7892 91.0609C35.2859 104.534 39.8598 119.016 46.2179 132.957C47.5149 135.8 51.4204 136.124 53.1576 133.526C64.4251 116.675 77.534 90.8507 100.061 89.1573C112.607 88.2999 121.247 98.245 127.47 107.795C128.787 109.816 131.856 109.624 132.855 107.43C140.813 89.9564 152.781 58.5003 176.031 59C183.416 59.1587 190.78 64.7086 195.923 69.52C203.095 76.2287 207.9 86.7838 216.715 91.4616C233.864 99.7374 239.352 121.978 252.739 134.542C253.99 135.716 256 134.807 256 133.092V20ZM3.11964 76.7262C2.02117 75.5379 0 76.317 0 77.9352V86.4402C0 89.8355 1.42359 93.0752 3.92456 95.3715C13.34 104.016 20.9859 113.736 27.8025 124.584C29.0732 126.606 31.7582 125.414 31.0879 123.122C25.9035 105.393 15.5743 90.199 3.11964 76.7262ZM5.40119 114.828C3.5935 112.642 0 113.909 0 116.746V236C0 247.046 8.95431 256 20 256H236C247.046 256 256 247.046 256 236V199.971C256 194.402 249.095 185.642 249.095 185.642C229.897 164.476 217.971 137.686 209.618 110.598C206.607 101.375 206.247 95.3378 197.523 103.685C188.609 112.23 185.063 125.305 177.031 134.644C165.363 148.678 151.828 150.285 136.901 139.953C134.633 138.384 131.615 139.324 130.348 141.773C123.956 154.13 118.393 167.763 109.757 178.727C99.8135 191.787 85.473 202.846 69.6728 192.453C59.285 185.946 52.4988 173.857 47.1816 163.198C42.5834 153.98 41.2839 152.277 36.9856 149.372C24.6692 141.599 14.369 125.673 5.40119 114.828ZM250.949 170.195C252.82 172.069 256 170.723 256 168.074V150.954C256 148.994 255.043 147.158 253.436 146.035C249.702 143.427 246.245 140.685 243.305 137.148C234.813 126.51 231.629 112.722 221.147 103.517C220.189 102.675 218.845 103.746 219.414 104.887C226.262 118.615 229.756 133.852 236.508 147.668C240.549 155.94 244.438 163.671 250.949 170.195ZM138.346 119.315C136.247 126.151 138.281 129.583 144.044 133.742C157.298 143.838 168.347 133.2 174.632 120.918C179.769 110.62 186.03 101.389 195.256 94.3187C206.659 85.58 185.036 73.0266 177.531 73.0266C156.34 73.0266 144.007 103.324 138.346 119.315ZM59.8046 141.363C51.7023 154.155 63.4629 168.872 72.6716 177.525C81.1928 185.532 91.348 182.655 98.1617 174.119C108.01 162.274 129.098 132.552 120.553 116.309C117.573 110.523 109.136 98.0742 101.76 98.0742C82.7195 99.1968 68.3496 127.872 59.8046 141.363Z" fill="white"/>
</svg>
