<svg width="256" height="192" viewBox="0 0 256 192" fill="none" xmlns="http://www.w3.org/2000/svg">
<path fill-rule="evenodd" clip-rule="evenodd" d="M256 20C256 8.95431 247.046 0 236 0H20C8.95431 0 0 8.95431 0 20V22.0819C0 26.2317 1.84864 30.159 4.99173 32.8686C13.9302 40.5742 22.1 48.5567 27.7892 59.0609C35.2859 72.5341 39.8598 87.0162 46.2179 100.957C47.5149 103.8 51.4204 104.124 53.1576 101.526C64.4251 84.6748 77.534 58.8507 100.061 57.1573C112.607 56.2999 121.247 66.245 127.47 75.7955C128.787 77.816 131.856 77.6245 132.855 75.4297C140.813 57.9564 152.781 26.5003 176.031 27C183.416 27.1587 190.78 32.7086 195.923 37.52C203.095 44.2287 207.9 54.7838 216.715 59.4616C233.864 67.7374 239.352 89.9784 252.739 102.542C253.99 103.716 256 102.807 256 101.092V20ZM3.11964 44.7262C2.02117 43.5379 0 44.317 0 45.9352V54.4402C0 57.8355 1.42359 61.0752 3.92456 63.3715C13.34 72.0163 20.9859 81.7357 27.8025 92.5835C29.0732 94.6056 31.7582 93.414 31.0879 91.1218C25.9035 73.3933 15.5743 58.199 3.11964 44.7262ZM5.40119 82.8283C3.5935 80.6423 0 81.909 0 84.7456V172C0 183.046 8.95431 192 20 192H236C247.046 192 256 183.046 256 172V167.971C256 162.402 249.095 153.642 249.095 153.642C229.897 132.476 217.971 105.686 209.618 78.598C206.607 69.3753 206.247 63.3378 197.523 71.6849C188.609 80.2304 185.063 93.3053 177.031 102.644C165.363 116.678 151.828 118.285 136.901 107.953C134.633 106.384 131.615 107.324 130.348 109.773C123.956 122.13 118.393 135.763 109.757 146.727C99.8135 159.787 85.473 170.846 69.6728 160.453C59.285 153.946 52.4988 141.857 47.1816 131.198C42.5834 121.98 41.2839 120.277 36.9856 117.372C24.6692 109.599 14.369 93.673 5.40119 82.8283ZM250.949 138.195C252.82 140.069 256 138.723 256 136.074V118.954C256 116.994 255.043 115.158 253.436 114.035C249.702 111.427 246.245 108.685 243.305 105.148C234.813 94.5098 231.629 80.7222 221.147 71.5166C220.189 70.675 218.845 71.746 219.414 72.8871C226.262 86.6149 229.756 101.852 236.508 115.668C240.549 123.94 244.438 131.671 250.949 138.195ZM138.346 87.3146C136.247 94.1506 138.281 97.5835 144.044 101.742C157.298 111.838 168.347 101.2 174.632 88.9176C179.769 78.6202 186.03 69.3894 195.256 62.3187C206.659 53.58 185.036 41.0266 177.531 41.0266C156.34 41.0266 144.007 71.3242 138.346 87.3146ZM59.8046 109.363C51.7023 122.155 63.4629 136.872 72.6716 145.525C81.1928 153.532 91.348 150.655 98.1617 142.119C108.01 130.274 129.098 100.552 120.553 84.3088C117.573 78.5228 109.136 66.0742 101.76 66.0742C82.7195 67.1968 68.3496 95.8723 59.8046 109.363Z" fill="white"/>
</svg>
