<svg width="256" height="128" viewBox="0 0 256 128" fill="none" xmlns="http://www.w3.org/2000/svg">
<path fill-rule="evenodd" clip-rule="evenodd" d="M4.99173 5.47704C1.43051e-05 1.87796 0 -5.30798 0 6.53763C0 12.2231 0.198771 13.5691 3.11964 16.5087C15.5743 29.043 25.9035 43.1789 31.0879 59.6725C31.7582 61.805 29.0732 62.9136 27.8025 61.0323C20.9859 50.9402 13.34 41.8978 3.92456 33.8551C5.03063e-05 30.2534 0 29.5673 0 39.6432C0 49.7217 5.90913 52.3944 12.0208 59.7747C19.3719 68.6519 27.5924 78.5789 36.9856 84.0938C41.2839 86.7969 42.5834 88.3815 47.1816 96.957C52.4988 106.873 59.285 118.121 69.6728 124.175C85.473 133.843 99.8135 123.555 109.757 111.405C118.393 101.204 123.956 88.5208 130.348 77.0246C131.615 74.7461 134.633 73.8715 136.901 75.3314C151.828 84.9433 165.363 83.448 177.031 70.3918C185.063 61.7038 188.609 49.5397 197.523 41.5895C205.232 34.7273 206.41 38.315 208.658 45.1632C217.44 71.9231 228.559 99.5564 249.095 120.62C256 127.702 256 133.254 256 119.113C256 109.833 255.208 107.436 250.949 103.466C244.438 97.3973 240.55 90.2042 236.508 82.5092C233.188 76.1894 230.656 69.5503 228.126 62.9157C225.51 56.0556 222.896 49.2004 219.414 42.708C218.845 41.6464 220.189 40.65 221.147 41.4329C227.251 46.4199 230.88 52.8522 234.523 59.3099C237.137 63.9423 239.758 68.5878 243.305 72.7221C248.261 78.2671 256 87.6329 256 77.2568C256 71.2195 255.399 72.6189 252.74 70.2973C247.301 65.5495 243.167 59.3162 239.025 53.0716C232.97 43.9427 226.898 34.7896 216.715 30.2177C211.287 27.538 207.38 22.7854 203.504 18.0715C201.086 15.1296 198.679 12.2028 195.924 9.80443C190.78 5.32826 183.416 0.153766 176.031 0.00612117C151.662 -0.481083 141.1 28.2301 132.855 45.0735C131.856 47.1153 128.787 47.2935 127.47 45.4137C121.247 36.5285 112.607 27.2762 100.061 28.0738C77.534 29.6493 64.4251 53.6745 53.1576 69.3522C51.4204 71.7693 47.5149 71.4677 46.2179 68.8222C43.8299 63.9512 41.6936 59.009 39.5596 54.0722C36.0118 45.8646 32.4703 37.6717 27.7892 29.8448C22.1 20.0724 13.9302 12.6459 4.99173 5.47704ZM144.044 69.5529C138.281 65.684 136.247 62.4903 138.346 56.1304C144.007 41.2539 156.34 13.0668 177.531 13.0668C185.036 13.0668 206.659 24.7457 195.256 32.8757C186.03 39.4539 179.769 48.0417 174.632 57.6218C168.347 69.049 157.298 78.9456 144.044 69.5529ZM72.6717 110.286C63.4629 102.236 51.7023 88.5441 59.8046 76.6431C68.3496 64.0921 82.7196 37.414 101.76 36.3696C109.136 36.3696 117.573 47.9511 120.553 53.3341C129.098 68.4461 108.01 96.0971 98.1617 107.117C91.348 115.059 81.1928 117.735 72.6717 110.286Z" fill="white"/>
</svg>
